# WaveFront *.obj file (generated by Autodesk ATF)

mtllib Pièce1.mtl

g Solide1

v -50.000000 0.000000 -280.000000
v -50.000000 0.000000 -220.000000
v -50.000000 0.000000 -100.000000
v -50.000000 0.000000 100.000000
v -50.000000 15.000000 -10.000000
v -50.000000 15.000000 10.000000
v -50.000000 25.000000 -220.000000
v -50.000000 25.000000 -100.000000
v -50.000000 25.000000 -10.000000
v -50.000000 25.000000 10.000000
v -50.000000 25.000000 46.387329
v -12.777022 25.000000 -64.815803
v -12.777022 35.000000 -64.815803
v -12.006474 25.000000 -69.185801
v -12.006474 25.000000 -60.445805
v -12.006474 35.000000 -69.185801
v -12.006474 35.000000 -60.445805
v -10.000000 0.000000 -200.000000
v -10.000000 0.000000 -100.000000
v -10.000000 25.000000 -200.000000
v -10.000000 25.000000 -100.000000
v -9.787767 25.000000 -73.028717
v -9.787767 25.000000 -56.602893
v -9.787767 35.000000 -73.028717
v -9.787767 35.000000 -56.602893
v -6.388511 25.000000 -75.881028
v -6.388511 25.000000 -53.750577
v -6.388511 35.000000 -75.881028
v -6.388511 35.000000 -53.750577
v -2.218707 25.000000 -77.398715
v -2.218707 25.000000 -52.232895
v -2.218707 35.000000 -77.398715
v -2.218707 35.000000 -52.232895
v 2.218707 25.000000 -77.398715
v 2.218707 25.000000 -52.232895
v 2.218707 35.000000 -77.398715
v 2.218707 35.000000 -52.232895
v 6.388511 25.000000 -75.881028
v 6.388511 25.000000 -53.750577
v 6.388511 35.000000 -75.881028
v 6.388511 35.000000 -53.750577
v 9.787767 25.000000 -73.028717
v 9.787767 25.000000 -56.602893
v 9.787767 35.000000 -73.028717
v 9.787767 35.000000 -56.602893
v 10.000000 0.000000 -200.000000
v 10.000000 0.000000 -100.000000
v 10.000000 25.000000 -200.000000
v 10.000000 25.000000 -100.000000
v 12.006474 25.000000 -69.185801
v 12.006474 25.000000 -60.445805
v 12.006474 35.000000 -69.185801
v 12.006474 35.000000 -60.445805
v 12.777022 25.000000 -64.815803
v 12.777022 35.000000 -64.815803
v 50.000000 0.000000 -280.000000
v 50.000000 0.000000 -220.000000
v 50.000000 0.000000 -100.000000
v 50.000000 0.000000 100.000000
v 50.000000 15.000000 -10.000000
v 50.000000 15.000000 10.000000
v 50.000000 25.000000 -220.000000
v 50.000000 25.000000 -100.000000
v 50.000000 25.000000 -10.000000
v 50.000000 25.000000 10.000000
v 50.000000 25.000000 46.387329
vt -3.250000 -2.500000 0.000000
vt 3.250000 -2.500000 0.000000
vt 3.250000 7.500000 0.000000
vt -3.250000 7.500000 0.000000
vt 0.000000 2.500000 0.000000
vt 6.000000 0.000000 0.000000
vt 6.000000 2.500000 0.000000
vt 0.000000 0.000000 0.000000
vt 6.000000 2.500000 0.000000
vt 0.000000 2.500000 0.000000
vt 0.000000 0.000000 0.000000
vt 10.000000 0.000000 0.000000
vt 10.000000 2.500000 0.000000
vt 0.000000 2.500000 0.000000
vt -3.000000 5.000000 0.000000
vt -3.000000 -5.000000 0.000000
vt 3.000000 -5.000000 0.000000
vt 3.000000 5.000000 0.000000
vt 10.000000 2.500000 0.000000
vt 0.000000 2.500000 0.000000
vt 0.000000 0.000000 0.000000
vt 10.000000 0.000000 0.000000
vt 10.000000 2.500000 0.000000
vt 0.000000 2.500000 0.000000
vt 0.000000 0.000000 0.000000
vt 10.000000 0.000000 0.000000
vt 2.000000 2.500000 0.000000
vt 0.000000 2.500000 0.000000
vt 0.000000 0.000000 0.000000
vt 2.000000 0.000000 0.000000
vt 6.000000 2.500000 0.000000
vt 6.000000 0.000000 0.000000
vt 10.000000 0.000000 0.000000
vt 10.000000 2.500000 0.000000
vt 4.000000 0.000000 0.000000
vt 4.000000 2.500000 0.000000
vt 0.000000 2.500000 0.000000
vt 0.000000 0.000000 0.000000
vt -10.000000 0.000000 0.000000
vt -0.000000 0.000000 0.000000
vt -0.000000 1.000000 0.000000
vt -10.000000 1.000000 0.000000
vt -10.000000 0.000000 0.000000
vt -0.000000 0.000000 0.000000
vt -0.000000 1.000000 0.000000
vt -10.000000 1.000000 0.000000
vt 1.000000 -5.000000 0.000000
vt 1.000000 5.000000 0.000000
vt -1.000000 5.000000 0.000000
vt -1.000000 -5.000000 0.000000
vt 11.000000 2.500000 0.000000
vt 11.000000 1.500000 0.000000
vt 9.000000 1.500000 0.000000
vt 9.000000 2.500000 0.000000
vt 0.000000 2.500000 0.000000
vt 0.000000 0.000000 0.000000
vt 20.000000 0.000000 0.000000
vt 14.638733 2.500000 0.000000
vt -6.481580 1.277702 0.000000
vt -6.044580 1.200647 0.000000
vt -5.660289 0.978777 0.000000
vt -5.375058 0.638851 0.000000
vt -5.223289 0.221871 0.000000
vt -5.223289 -0.221871 0.000000
vt -5.375058 -0.638851 0.000000
vt -5.660289 -0.978777 0.000000
vt -6.044580 -1.200647 0.000000
vt -6.481580 -1.277702 0.000000
vt -6.918580 -1.200647 0.000000
vt -7.302872 -0.978777 0.000000
vt -7.588103 -0.638851 0.000000
vt -7.739872 -0.221871 0.000000
vt -7.739872 0.221871 0.000000
vt -7.588103 0.638851 0.000000
vt -7.302872 0.978777 0.000000
vt -6.918580 1.200647 0.000000
vt -1.000000 -5.000000 0.000000
vt -1.000000 5.000000 0.000000
vt -10.000000 5.000000 0.000000
vt -10.000000 1.000000 0.000000
vt -20.000000 1.000000 0.000000
vt -20.000000 -1.000000 0.000000
vt -10.000000 -1.000000 0.000000
vt -10.000000 -5.000000 0.000000
vt 2.957752 7.500000 0.000000
vt -2.957752 7.500000 0.000000
vt -2.957752 -2.500000 0.000000
vt 2.957752 -2.500000 0.000000
vt 1.000000 5.000000 0.000000
vt 1.000000 -5.000000 0.000000
vt 4.638733 -5.000000 0.000000
vt 4.638733 5.000000 0.000000
vt 9.000000 1.500000 0.000000
vt 9.000000 2.500000 0.000000
vt 5.361267 2.500000 0.000000
vt 0.000000 0.000000 0.000000
vt 20.000000 0.000000 0.000000
vt 20.000000 2.500000 0.000000
vt 11.000000 2.500000 0.000000
vt 11.000000 1.500000 0.000000
vt 10.000000 1.000000 0.000000
vt 10.000000 5.000000 0.000000
vt -10.000000 5.000000 0.000000
vt -10.000000 -5.000000 0.000000
vt 10.000000 -5.000000 0.000000
vt 10.000000 -1.000000 0.000000
vt 20.000000 -1.000000 0.000000
vt 20.000000 1.000000 0.000000
vt -1.000000 0.000000 0.000000
vt -1.000000 -0.446002 0.000000
vt -1.000000 -0.892004 0.000000
vt -1.000000 -1.338007 0.000000
vt -1.000000 -1.784009 0.000000
vt -1.000000 -2.230011 0.000000
vt -1.000000 -2.676013 0.000000
vt -1.000000 -3.122015 0.000000
vt -1.000000 -3.568017 0.000000
vt -1.000000 4.014020 0.000000
vt -1.000000 3.568017 0.000000
vt -1.000000 3.122015 0.000000
vt -1.000000 2.676013 0.000000
vt -1.000000 2.230011 0.000000
vt -1.000000 1.784009 0.000000
vt -1.000000 1.338007 0.000000
vt -1.000000 0.892004 0.000000
vt -1.000000 0.446002 0.000000
vt -0.000000 0.000000 0.000000
vt -0.000000 0.446002 0.000000
vt -0.000000 0.892004 0.000000
vt -0.000000 1.338007 0.000000
vt -0.000000 1.784009 0.000000
vt -0.000000 2.230011 0.000000
vt -0.000000 2.676013 0.000000
vt -0.000000 3.122015 0.000000
vt -0.000000 3.568017 0.000000
vt -0.000000 -4.014020 0.000000
vt -0.000000 -3.568017 0.000000
vt -0.000000 -3.122015 0.000000
vt -0.000000 -2.676013 0.000000
vt -0.000000 -2.230011 0.000000
vt -0.000000 -1.784009 0.000000
vt -0.000000 -1.338007 0.000000
vt -0.000000 -0.892004 0.000000
vt -0.000000 -0.446002 0.000000
vt -0.000000 4.014020 0.000000
vt -1.000000 -4.014020 0.000000
vt 0.000000 1.277702 0.000000
vt -0.437000 1.200647 0.000000
vt -0.821291 0.978777 0.000000
vt -1.106523 0.638851 0.000000
vt -1.258291 0.221871 0.000000
vt -1.258291 -0.221871 0.000000
vt -1.106523 -0.638851 0.000000
vt -0.821291 -0.978777 0.000000
vt -0.437000 -1.200647 0.000000
vt 0.000000 -1.277702 0.000000
vt 0.437000 -1.200647 0.000000
vt 0.821291 -0.978777 0.000000
vt 1.106523 -0.638851 0.000000
vt 1.258291 -0.221871 0.000000
vt 1.258291 0.221871 0.000000
vt 1.106523 0.638851 0.000000
vt 0.821291 0.978777 0.000000
vt 0.437000 1.200647 0.000000
vn 0.000000 0.092308 -0.038462
vn 0.000000 0.092308 -0.038462
vn 0.000000 0.092308 -0.038462
vn 0.000000 0.092308 -0.038462
vn 0.100000 0.000000 0.000000
vn 0.100000 0.000000 0.000000
vn 0.100000 0.000000 0.000000
vn -0.100000 0.000000 0.000000
vn -0.100000 0.000000 0.000000
vn -0.100000 0.000000 0.000000
vn 0.000000 0.000000 0.100000
vn 0.000000 0.000000 0.100000
vn 0.000000 0.000000 0.100000
vn 0.000000 0.000000 0.100000
vn 0.000000 -0.100000 0.000000
vn 0.000000 -0.100000 0.000000
vn 0.000000 -0.100000 0.000000
vn 0.000000 -0.100000 0.000000
vn -0.100000 0.000000 0.000000
vn -0.100000 0.000000 0.000000
vn -0.100000 0.000000 0.000000
vn -0.100000 0.000000 0.000000
vn 0.100000 0.000000 0.000000
vn 0.100000 0.000000 0.000000
vn 0.100000 0.000000 0.000000
vn 0.100000 0.000000 0.000000
vn 0.000000 0.000000 -0.100000
vn 0.000000 0.000000 -0.100000
vn 0.000000 0.000000 -0.100000
vn 0.000000 0.000000 -0.100000
vn 0.000000 0.000000 -0.100000
vn 0.000000 0.000000 -0.100000
vn 0.000000 0.000000 -0.100000
vn 0.000000 0.000000 -0.100000
vn 0.000000 0.000000 -0.100000
vn 0.000000 0.000000 -0.100000
vn 0.000000 0.000000 -0.100000
vn 0.000000 0.000000 -0.100000
vn 0.000000 0.000000 0.100000
vn 0.000000 0.000000 0.100000
vn 0.000000 0.000000 0.100000
vn 0.000000 0.000000 0.100000
vn 0.000000 0.000000 -0.100000
vn 0.000000 0.000000 -0.100000
vn 0.000000 0.000000 -0.100000
vn 0.000000 0.000000 -0.100000
vn 0.000000 0.100000 0.000000
vn 0.000000 0.100000 0.000000
vn 0.000000 0.100000 0.000000
vn 0.000000 0.100000 0.000000
vn -0.100000 0.000000 0.000000
vn -0.100000 0.000000 0.000000
vn -0.100000 0.000000 0.000000
vn -0.100000 0.000000 0.000000
vn -0.100000 0.000000 0.000000
vn -0.100000 0.000000 0.000000
vn -0.100000 0.000000 0.000000
vn -0.100000 0.000000 0.000000
vn 0.000000 0.100000 0.000000
vn 0.000000 0.100000 0.000000
vn 0.000000 0.100000 0.000000
vn 0.000000 0.100000 0.000000
vn 0.000000 0.100000 0.000000
vn 0.000000 0.100000 0.000000
vn 0.000000 0.100000 0.000000
vn 0.000000 0.100000 0.000000
vn 0.000000 0.100000 0.000000
vn 0.000000 0.100000 0.000000
vn 0.000000 0.100000 0.000000
vn 0.000000 0.100000 0.000000
vn 0.000000 0.100000 0.000000
vn 0.000000 0.100000 0.000000
vn 0.000000 0.100000 0.000000
vn 0.000000 0.100000 0.000000
vn 0.000000 0.100000 0.000000
vn 0.000000 0.100000 0.000000
vn 0.000000 0.100000 0.000000
vn 0.000000 0.100000 0.000000
vn 0.000000 0.100000 0.000000
vn 0.000000 0.100000 0.000000
vn 0.000000 0.100000 0.000000
vn 0.000000 0.100000 0.000000
vn 0.000000 0.100000 0.000000
vn 0.000000 0.100000 0.000000
vn 0.000000 0.090631 0.042262
vn 0.000000 0.090631 0.042262
vn 0.000000 0.090631 0.042262
vn 0.000000 0.090631 0.042262
vn 0.000000 0.100000 0.000000
vn 0.000000 0.100000 0.000000
vn 0.000000 0.100000 0.000000
vn 0.000000 0.100000 0.000000
vn 0.100000 0.000000 0.000000
vn 0.100000 0.000000 0.000000
vn 0.100000 0.000000 0.000000
vn 0.100000 0.000000 0.000000
vn 0.100000 0.000000 0.000000
vn 0.100000 0.000000 0.000000
vn 0.100000 0.000000 0.000000
vn 0.100000 0.000000 0.000000
vn 0.000000 -0.100000 0.000000
vn 0.000000 -0.100000 0.000000
vn 0.000000 -0.100000 0.000000
vn 0.000000 -0.100000 0.000000
vn 0.000000 -0.100000 0.000000
vn 0.000000 -0.100000 0.000000
vn 0.000000 -0.100000 0.000000
vn 0.000000 -0.100000 0.000000
vn 0.100000 0.000000 0.000000
vn 0.093969 0.000000 0.034202
vn 0.076604 0.000000 0.064279
vn 0.050000 0.000000 0.086603
vn 0.017365 0.000000 0.098481
vn -0.017365 0.000000 0.098481
vn -0.050000 0.000000 0.086603
vn -0.076604 0.000000 0.064279
vn -0.093969 0.000000 0.034202
vn -0.100000 0.000000 0.000000
vn -0.093969 0.000000 -0.034202
vn -0.076604 0.000000 -0.064279
vn -0.050000 0.000000 -0.086603
vn -0.017365 0.000000 -0.098481
vn 0.017365 0.000000 -0.098481
vn 0.050000 0.000000 -0.086603
vn 0.076604 0.000000 -0.064279
vn 0.093969 0.000000 -0.034202
vn 0.100000 0.000000 0.000000
vn 0.093969 0.000000 -0.034202
vn 0.076604 0.000000 -0.064279
vn 0.050000 0.000000 -0.086603
vn 0.017365 0.000000 -0.098481
vn -0.017365 0.000000 -0.098481
vn -0.050000 0.000000 -0.086603
vn -0.076604 0.000000 -0.064279
vn -0.093969 0.000000 -0.034202
vn -0.100000 0.000000 0.000000
vn -0.093969 0.000000 0.034202
vn -0.076604 0.000000 0.064279
vn -0.050000 0.000000 0.086603
vn -0.017365 0.000000 0.098481
vn 0.017365 0.000000 0.098481
vn 0.050000 0.000000 0.086603
vn 0.076604 0.000000 0.064279
vn 0.093969 0.000000 0.034202
vn -0.100000 0.000000 0.000000
vn -0.100000 0.000000 0.000000
vn 0.000000 0.100000 0.000000
vn 0.000000 0.100000 0.000000
vn 0.000000 0.100000 0.000000
vn 0.000000 0.100000 0.000000
vn 0.000000 0.100000 0.000000
vn 0.000000 0.100000 0.000000
vn 0.000000 0.100000 0.000000
vn 0.000000 0.100000 0.000000
vn 0.000000 0.100000 0.000000
vn 0.000000 0.100000 0.000000
vn 0.000000 0.100000 0.000000
vn 0.000000 0.100000 0.000000
vn 0.000000 0.100000 0.000000
vn 0.000000 0.100000 0.000000
vn 0.000000 0.100000 0.000000
vn 0.000000 0.100000 0.000000
vn 0.000000 0.100000 0.000000
vn 0.000000 0.100000 0.000000
usemtl 191,191,191
f 1/1/1 7/2/2 56/4/4
f 56/4/4 7/2/2 62/3/3
f 56/5/5 62/6/6 57/7/7
f 7/8/8 1/9/9 2/10/10
f 62/11/11 7/12/12 57/14/14
f 57/14/14 7/12/12 2/13/13
f 2/16/16 1/17/17 57/15/15
f 57/15/15 1/17/17 56/18/18
f 18/19/19 19/20/20 20/22/22
f 20/22/22 19/20/20 21/21/21
f 47/23/23 46/24/24 49/26/26
f 49/26/26 46/24/24 48/25/25
f 46/27/27 18/28/28 48/30/30
f 48/30/30 18/28/28 20/29/29
f 19/32/32 3/33/33 21/31/31
f 21/31/31 3/33/33 8/34/34
f 49/36/36 63/37/37 47/35/35
f 47/35/35 63/37/37 58/38/38
f 64/39/39 9/40/40 60/42/42
f 60/42/42 9/40/40 5/41/41
f 10/43/43 65/44/44 6/46/46
f 6/46/46 65/44/44 61/45/45
f 61/48/48 60/49/49 6/47/47
f 6/47/47 60/49/49 5/50/50
f 10/51/51 6/52/52 11/58/58
f 11/58/58 6/52/52 4/57/57
f 4/57/57 6/52/52 5/53/53
f 4/57/57 5/53/53 3/56/56
f 3/56/56 5/53/53 8/55/55
f 8/55/55 5/53/53 9/54/54
f 51/60/60 64/78/78 54/59/59
f 54/59/59 64/78/78 63/79/79
f 54/59/59 63/79/79 50/76/76
f 50/76/76 63/79/79 49/80/80
f 50/76/76 49/80/80 42/75/75
f 42/75/75 49/80/80 38/74/74
f 38/74/74 49/80/80 34/73/73
f 34/73/73 49/80/80 30/72/72
f 30/72/72 49/80/80 21/83/83
f 30/72/72 21/83/83 26/71/71
f 26/71/71 21/83/83 22/70/70
f 22/70/70 21/83/83 14/69/69
f 14/69/69 21/83/83 8/84/84
f 14/69/69 8/84/84 12/68/68
f 12/68/68 8/84/84 9/77/77
f 12/68/68 9/77/77 15/67/67
f 15/67/67 9/77/77 23/66/66
f 23/66/66 9/77/77 27/65/65
f 27/65/65 9/77/77 31/64/64
f 31/64/64 9/77/77 35/63/63
f 35/63/63 9/77/77 64/78/78
f 35/63/63 64/78/78 39/62/62
f 39/62/62 64/78/78 43/61/61
f 43/61/61 64/78/78 51/60/60
f 48/81/81 20/82/82 49/80/80
f 49/80/80 20/82/82 21/83/83
f 59/85/85 66/86/86 4/88/88
f 4/88/88 66/86/86 11/87/87
f 10/90/90 11/91/91 65/89/89
f 65/89/89 11/91/91 66/92/92
f 65/94/94 66/95/95 61/93/93
f 61/93/93 66/95/95 59/96/96
f 61/93/93 59/96/96 58/97/97
f 61/93/93 58/97/97 60/100/100
f 60/100/100 58/97/97 63/98/98
f 60/100/100 63/98/98 64/99/99
f 58/102/102 59/103/103 47/101/101
f 47/101/101 59/103/103 4/104/104
f 47/101/101 4/104/104 19/106/106
f 19/106/106 4/104/104 3/105/105
f 19/106/106 18/107/107 47/101/101
f 47/101/101 18/107/107 46/108/108
f 53/110/110 51/144/144 55/109/109
f 55/109/109 51/144/144 54/127/127
f 55/109/109 54/127/127 52/126/126
f 52/126/126 54/127/127 50/128/128
f 52/126/126 50/128/128 44/125/125
f 44/125/125 50/128/128 42/129/129
f 44/125/125 42/129/129 40/124/124
f 40/124/124 42/129/129 38/130/130
f 40/124/124 38/130/130 36/123/123
f 36/123/123 38/130/130 34/131/131
f 36/123/123 34/131/131 32/122/122
f 32/122/122 34/131/131 30/132/132
f 32/122/122 30/132/132 28/121/121
f 28/121/121 30/132/132 26/133/133
f 28/121/121 26/133/133 24/120/120
f 24/120/120 26/133/133 22/134/134
f 24/120/120 22/134/134 16/119/119
f 16/119/119 22/134/134 14/135/135
f 16/119/119 14/135/135 13/118/118
f 13/118/118 14/135/135 12/145/145
f 13/146/146 12/136/136 17/117/117
f 17/117/117 12/136/136 15/137/137
f 17/117/117 15/137/137 25/116/116
f 25/116/116 15/137/137 23/138/138
f 25/116/116 23/138/138 29/115/115
f 29/115/115 23/138/138 27/139/139
f 29/115/115 27/139/139 33/114/114
f 33/114/114 27/139/139 31/140/140
f 33/114/114 31/140/140 37/113/113
f 37/113/113 31/140/140 35/141/141
f 37/113/113 35/141/141 41/112/112
f 41/112/112 35/141/141 39/142/142
f 41/112/112 39/142/142 45/111/111
f 45/111/111 39/142/142 43/143/143
f 45/111/111 43/143/143 53/110/110
f 53/110/110 43/143/143 51/144/144
f 52/148/148 13/156/156 55/147/147
f 55/147/147 13/156/156 17/157/157
f 55/147/147 17/157/157 53/164/164
f 53/164/164 17/157/157 25/158/158
f 53/164/164 25/158/158 45/163/163
f 45/163/163 25/158/158 29/159/159
f 45/163/163 29/159/159 41/162/162
f 41/162/162 29/159/159 33/160/160
f 41/162/162 33/160/160 37/161/161
f 13/156/156 52/148/148 16/155/155
f 16/155/155 52/148/148 44/149/149
f 16/155/155 44/149/149 24/154/154
f 24/154/154 44/149/149 40/150/150
f 24/154/154 40/150/150 36/151/151
f 36/151/151 32/152/152 24/154/154
f 24/154/154 32/152/152 28/153/153
# 66 vertices
# 164 texture params
# 164 normals
# 124 facets

# 1 groups
